<?xml version="1.0" standalone="no"?>
<!DOCTYPE svg PUBLIC "-//W3C//DTD SVG 20010904//EN"
 "http://www.w3.org/TR/2001/REC-SVG-20010904/DTD/svg10.dtd">
<svg version="1.0" xmlns="http://www.w3.org/2000/svg"
 width="1600.000000pt" height="1512.000000pt" viewBox="0 0 1600.000000 1512.000000"
 preserveAspectRatio="xMidYMid meet">

<g transform="translate(0.000000,1512.000000) scale(0.100000,-0.100000)"
fill="#000000" stroke="none">
<path d="M0 7560 l0 -7560 8000 0 8000 0 0 7560 0 7560 -8000 0 -8000 0 0
-7560z m10020 1114 c0 -3 -19 -38 -41 -77 -23 -40 -60 -103 -82 -142 -70 -120
-58 -119 -120 -13 -30 51 -65 111 -77 133 -12 22 -31 55 -42 73 l-20 32 191 0
c105 0 191 -3 191 -6z m388 -45 c83 3 152 4 152 2 0 -11 -42 -69 -64 -88 -124
-108 -286 -73 -286 61 0 33 2 35 23 27 12 -5 91 -6 175 -2z m583 -6 c8 -8 9
-17 3 -21 -5 -4 -16 -16 -24 -26 -13 -18 -13 -19 0 -11 12 7 13 6 3 -7 -7 -8
-9 -19 -5 -23 4 -5 1 -5 -5 -1 -9 5 -13 0 -13 -16 0 -37 -13 -47 -55 -46 -22
0 -57 -7 -77 -15 l-37 -16 -3 -71 -3 -72 -186 -2 c-181 -1 -186 0 -160 16 14
10 32 16 39 13 7 -3 10 0 6 6 -9 15 21 40 90 74 33 17 68 42 78 56 20 27 27
86 12 97 -14 10 -44 59 -44 72 0 7 60 10 184 10 151 -1 187 -4 197 -17z m-828
-142 c14 -27 37 -70 52 -95 24 -42 25 -46 8 -46 -10 -1 -60 -2 -111 -3 -50 -1
-92 0 -92 2 0 11 66 121 72 121 5 0 8 7 8 15 0 17 21 55 31 55 3 0 18 -22 32
-49z m-6693 -416 l0 -135 -287 -2 -288 -3 0 -245 0 -245 273 -3 272 -2 0 -135
0 -135 -275 0 -275 0 0 -245 c0 -268 5 -297 57 -338 50 -41 80 -45 299 -46
189 -1 213 -3 218 -18 9 -22 6 -217 -4 -232 -11 -18 -741 -10 -792 9 -55 20
-129 80 -165 134 -63 93 -61 68 -69 961 l-7 815 521 0 522 0 0 -135z m533 119
c26 -9 70 -36 97 -61 44 -40 64 -72 154 -257 57 -116 162 -328 232 -471 l129
-260 3 533 2 532 170 0 170 0 0 -966 0 -966 -152 4 c-141 4 -157 6 -203 30
-57 29 -115 90 -135 140 -7 18 -58 123 -113 233 -55 110 -152 305 -216 433
-64 127 -119 232 -123 232 -5 0 -8 -241 -8 -535 l0 -535 -170 0 -170 0 0 965
0 965 143 0 c105 0 156 -4 190 -16z m2467 -36 c0 -75 -37 -149 -91 -185 -41
-27 -47 -28 -194 -31 l-152 -3 -6 -412 c-4 -227 -7 -528 -7 -669 0 -142 -2
-258 -5 -258 -3 0 -22 8 -43 19 -59 30 -176 61 -229 61 -66 1 -93 -4 -130 -23
-18 -10 -34 -17 -37 -17 -3 0 -7 291 -8 648 l-3 647 -222 3 -223 2 0 38 c0 63
27 135 62 169 66 64 44 62 696 63 l592 0 0 -52z m1153 31 c130 -43 213 -140
238 -275 6 -34 9 -130 7 -224 -3 -157 -5 -168 -31 -222 -35 -71 -109 -138
-194 -175 l-62 -27 87 -43 c101 -49 159 -101 193 -170 24 -48 24 -49 24 -408
l0 -360 -38 -3 c-23 -2 -48 3 -63 13 -13 8 -24 13 -24 11 0 -3 -17 1 -37 8
-58 20 -163 14 -207 -12 -20 -12 -46 -22 -56 -22 -18 0 -19 15 -22 348 l-3
349 -29 37 c-50 66 -76 76 -202 76 l-111 0 -6 -272 c-4 -149 -7 -331 -7 -405
l0 -133 -218 0 -219 0 -6 458 c-11 719 -9 1269 4 1313 17 55 65 108 123 135
51 24 53 24 424 24 351 0 376 -1 435 -21z m1497 -114 l0 -135 -287 -2 -288 -3
0 -245 0 -245 273 -3 c288 -2 275 0 275 -47 0 -8 -1 -62 -2 -120 l-1 -106
-272 1 -273 1 -3 -243 c-2 -169 1 -252 9 -273 14 -36 58 -85 75 -85 7 0 14 -5
16 -11 5 -14 30 -16 276 -18 l192 -1 0 -130 0 -131 -377 3 -378 3 -65 32 c-92
45 -145 106 -181 211 -18 52 -19 104 -26 869 l-6 813 521 0 522 0 0 -135z
m2852 -346 c-8 -7 -245 -59 -281 -62 -31 -2 -103 -69 -135 -127 -20 -35 -26
-41 -32 -27 -3 9 -3 29 0 43 6 24 5 26 -16 20 -13 -4 -41 -9 -63 -11 -32 -4
-35 -3 -15 4 14 5 21 10 15 11 -5 1 1 6 14 11 13 5 22 11 20 13 -7 7 -113 -15
-127 -26 -7 -6 -15 -8 -18 -5 -4 3 20 18 52 33 46 22 54 28 37 31 -12 2 -38 0
-57 -6 -20 -5 -36 -6 -36 -1 0 4 20 11 45 14 25 4 45 11 45 17 0 5 -4 9 -10 9
-5 0 -10 3 -10 8 0 11 114 41 195 51 78 10 388 10 377 0z m505 4 c32 -13 -45
-63 -97 -63 -43 0 -38 -21 17 -64 58 -45 102 -49 128 -10 9 15 12 23 6 19 -9
-5 -11 11 -9 57 l3 63 200 0 200 0 9 -27 c15 -42 -9 -86 -61 -111 -42 -20 -61
-51 -55 -84 2 -9 -74 -12 -320 -13 l-322 0 25 26 24 26 -41 36 c-22 20 -69 63
-105 94 l-64 57 224 0 c123 0 230 -3 238 -6z m-1072 -183 c3 -5 -1 -10 -10
-10 -9 0 -13 5 -10 10 3 6 8 10 10 10 2 0 7 -4 10 -10z m-1885 -517 c0 -3 14
-28 30 -55 17 -26 30 -52 30 -56 0 -4 -50 -7 -110 -7 -61 0 -109 2 -108 5 2 3
27 47 56 98 l54 92 24 -35 c13 -20 24 -39 24 -42z m811 -190 c-12 -20 -14 -14
-5 12 4 9 9 14 11 11 3 -2 0 -13 -6 -23z m454 -35 c17 -29 31 -56 33 -60 2 -4
-11 -19 -28 -35 -45 -39 -123 -140 -149 -191 -19 -38 -20 -44 -7 -65 8 -12 18
-44 22 -72 8 -60 36 -124 81 -186 18 -26 33 -53 33 -61 0 -17 -20 -38 -34 -38
-24 1 -346 317 -346 340 0 25 27 57 76 91 42 29 46 30 58 13 18 -24 29 -14 77
74 24 42 46 79 51 80 4 2 8 8 8 14 0 13 81 148 89 148 3 0 20 -24 36 -52z
m-486 -25 c-37 -61 -72 -109 -66 -91 8 24 75 128 83 128 3 0 -5 -17 -17 -37z
m-420 -114 l32 -59 -90 0 c-50 0 -91 3 -91 6 0 4 19 40 43 80 48 83 45 84 106
-27z m-200 54 c-12 -21 -33 -57 -46 -80 -14 -24 -28 -43 -31 -43 -7 0 -92 144
-92 155 0 3 43 5 96 5 l96 0 -23 -37z m341 -3 c0 -5 20 -44 45 -85 l45 -76
-57 -82 c-31 -45 -88 -121 -126 -169 -76 -97 -135 -207 -117 -218 6 -3 15 -35
21 -70 5 -35 15 -72 20 -82 6 -11 9 -21 7 -22 -2 -1 -32 -8 -67 -14 -73 -13
-72 -13 -173 85 -35 34 -58 64 -58 77 1 25 29 60 91 109 51 41 93 112 152 257
61 149 54 140 120 140 32 0 57 3 55 8 -2 4 -12 24 -23 45 l-19 37 34 35 c34
35 50 43 50 25z m-562 -119 c23 -43 42 -81 42 -85 0 -3 -42 -6 -94 -6 l-94 0
46 85 c26 47 49 85 52 85 3 0 24 -35 48 -79z m-3666 -22 c57 -12 151 -55 187
-85 37 -31 41 -47 25 -100 -43 -140 -134 -739 -117 -767 3 -5 29 -7 59 -4 64
7 79 -6 71 -60 -9 -51 -40 -74 -97 -71 l-45 2 -8 -64 c-10 -84 -1 -373 14
-424 6 -22 24 -52 40 -67 37 -34 36 -43 -4 -68 -85 -52 -199 -49 -290 9 -36
23 -52 43 -84 106 l-38 78 1 150 c1 97 7 187 19 251 29 161 31 153 -45 181
-36 13 -66 24 -67 24 -2 0 -20 -35 -41 -77 -127 -257 -274 -497 -387 -633
-111 -132 -157 -160 -266 -160 -61 0 -80 5 -130 31 -72 39 -133 97 -163 158
-32 63 -39 102 -24 123 11 15 19 16 57 6 35 -9 53 -8 96 6 93 29 160 81 321
250 29 30 190 245 205 273 19 35 5 38 -63 13 -163 -58 -277 -163 -294 -269 -4
-27 -13 -42 -25 -46 -55 -18 -191 36 -276 109 -55 48 -103 144 -103 206 0 54
35 131 81 178 29 30 125 91 152 96 7 2 21 6 32 10 57 21 77 26 155 37 109 14
262 4 399 -27 58 -13 109 -24 113 -24 6 0 98 145 98 154 0 2 25 48 55 101 31
54 73 130 94 169 107 200 108 201 173 221 54 17 56 17 120 4z m5755 -121 l32
-53 -27 -23 c-32 -27 -140 -82 -161 -82 -12 0 -12 3 1 18 9 9 29 42 46 72 53
96 67 120 72 120 3 0 20 -24 37 -52z m559 -5 c53 -83 53 -80 -13 -89 -32 -3
-69 -11 -82 -16 -31 -11 -48 4 -27 25 9 9 16 19 16 23 0 4 13 28 29 54 16 27
27 51 24 54 -4 3 -1 6 5 6 6 0 28 -26 48 -57z m259 37 c3 -11 13 -26 21 -34
12 -13 7 -17 -41 -35 -31 -12 -58 -21 -60 -21 -4 0 29 65 49 98 11 18 24 15
31 -8z m-2645 -20 c0 -10 -40 -91 -58 -118 -7 -10 -19 1 -46 44 -20 32 -36 64
-36 71 0 9 20 13 70 13 42 0 70 -4 70 -10z m1574 -63 c16 -28 39 -66 52 -83
l23 -32 -55 -33 c-31 -19 -110 -69 -176 -113 -102 -67 -119 -82 -114 -100 3
-11 6 -47 6 -79 0 -49 4 -62 24 -81 l25 -22 -55 -17 c-53 -17 -55 -16 -77 3
-12 12 -31 23 -42 26 -21 5 -105 133 -105 160 0 11 16 14 75 14 81 0 87 5 56
48 -33 48 -43 72 -28 66 16 -6 111 66 127 96 6 11 21 20 33 20 31 0 39 7 78
73 32 52 89 105 114 106 6 1 23 -23 39 -52z m518 17 c31 -6 42 -14 62 -50 l24
-43 -25 -16 c-14 -9 -22 -19 -19 -22 3 -3 -10 -33 -29 -67 -21 -39 -36 -81
-40 -116 -11 -94 -14 -102 -37 -98 -28 4 -34 29 -47 200 -10 132 -10 139 11
178 23 42 31 45 100 34z m-2253 -101 l51 -88 -101 -3 c-56 -1 -104 -1 -106 2
-3 2 12 35 33 73 49 89 57 103 66 103 3 0 29 -39 57 -87z m-1832 -117 c69 -33
77 -50 59 -129 -20 -88 -55 -176 -77 -198 -22 -22 -73 -25 -134 -8 -49 13 -82
42 -90 79 -12 55 45 237 83 266 27 21 101 16 159 -10z m-5149 -152 c18 -12 22
-25 22 -68 0 -59 -10 -72 -55 -78 -28 -3 -30 -6 -33 -50 -2 -34 -7 -48 -18
-48 -11 0 -14 23 -14 130 l0 130 38 0 c21 0 48 -7 60 -16z m152 -91 c10 -56
20 -113 24 -127 8 -32 -19 -37 -29 -6 -5 15 -15 20 -41 20 -27 0 -34 -4 -34
-20 0 -11 -7 -20 -15 -20 -18 0 -20 -15 10 130 14 68 25 125 25 127 0 2 10 3
22 1 19 -3 23 -14 38 -105z m152 90 c21 -19 25 -92 6 -111 -9 -9 -9 -15 0 -24
18 -18 16 -108 -2 -108 -11 0 -16 14 -18 48 -3 43 -5 47 -30 50 -27 3 -28 2
-28 -47 0 -39 -4 -51 -15 -51 -13 0 -15 20 -15 123 0 68 3 127 7 130 13 13 77
7 95 -10z m138 -5 c9 -23 40 -193 40 -223 0 -22 -18 -18 -25 5 -5 15 -15 20
-41 20 -27 0 -34 -4 -34 -20 0 -11 -7 -20 -15 -20 -8 0 -15 4 -15 9 0 13 40
223 45 239 7 20 35 14 45 -10z m162 -95 c3 -106 5 -118 22 -121 30 -6 36 16
36 131 0 91 2 107 16 107 14 0 15 -16 12 -121 -3 -106 -5 -122 -22 -135 -26
-19 -55 -18 -78 3 -15 14 -18 32 -18 135 0 97 3 118 15 118 12 0 15 -22 17
-117z m153 107 c3 -5 14 -49 24 -97 19 -93 21 -92 41 12 17 89 20 95 41 95 18
0 19 -8 19 -130 0 -107 -3 -130 -15 -130 -11 0 -15 18 -17 83 l-3 82 -15 -80
c-11 -57 -21 -81 -32 -83 -12 -2 -18 12 -28 65 -19 104 -29 109 -30 16 0 -49
-4 -83 -10 -83 -6 0 -10 50 -10 130 0 107 3 130 14 130 8 0 17 -4 21 -10z
m264 -102 c12 -62 24 -121 27 -130 4 -12 0 -18 -11 -18 -9 0 -19 9 -22 19 -8
31 -73 35 -73 5 0 -15 -18 -29 -27 -20 -3 3 5 62 17 131 21 115 25 125 45 125
20 0 24 -10 44 -112z m134 90 c3 -13 11 -57 18 -98 6 -41 15 -78 19 -83 4 -4
15 38 25 93 17 93 28 121 42 107 3 -3 -5 -62 -18 -132 -23 -123 -24 -126 -48
-123 -24 3 -26 10 -47 123 -12 66 -20 123 -18 127 9 15 22 8 27 -14z m167
-108 c0 -109 -2 -130 -15 -130 -13 0 -15 21 -15 130 0 109 2 130 15 130 13 0
15 -21 15 -130z m124 117 c22 -16 32 -125 19 -197 -8 -39 -12 -46 -38 -50 -17
-3 -40 -4 -52 -2 -22 4 -23 7 -23 133 l0 129 38 0 c21 0 46 -6 56 -13z m136
11 c0 -2 11 -59 25 -128 14 -74 20 -129 15 -134 -5 -5 -14 2 -21 17 -10 21
-19 27 -46 27 -26 0 -33 -4 -33 -20 0 -11 -7 -20 -15 -20 -8 0 -15 4 -15 9 0
13 40 223 45 239 4 10 45 19 45 10z m5879 -277 c63 -24 121 -75 121 -107 0
-13 -15 -46 -32 -75 -30 -47 -33 -60 -33 -128 0 -69 27 -202 46 -225 9 -10 86
93 147 198 47 79 73 101 105 84 23 -12 21 -40 -7 -97 -24 -46 -135 -217 -166
-254 -8 -10 -22 -27 -30 -37 -8 -9 -26 -32 -40 -50 -88 -117 -158 -165 -259
-177 -54 -6 -150 11 -202 37 -46 24 -103 88 -120 134 -7 20 -16 36 -19 36 -7
0 -50 -56 -50 -65 0 -3 -18 -25 -40 -49 -135 -144 -318 -107 -355 72 -4 17
-10 32 -14 32 -3 0 -15 -17 -26 -37 -44 -82 -107 -133 -190 -154 -82 -21 -163
28 -214 129 -21 41 -44 139 -36 152 3 5 2 11 -3 14 -4 2 -19 -12 -32 -32 -29
-42 -100 -133 -131 -165 -36 -37 -46 -58 -89 -177 -70 -193 -157 -319 -257
-375 -54 -30 -94 -31 -148 -5 -72 34 -115 85 -115 137 0 38 -6 32 153 158 143
113 142 111 177 294 26 137 17 148 -36 41 -57 -117 -121 -170 -204 -170 -78 0
-131 54 -146 149 -4 23 -10 41 -14 41 -4 0 -26 -28 -47 -63 -91 -145 -248
-179 -338 -74 -31 36 -55 104 -55 157 0 34 -17 22 -44 -30 -65 -124 -127 -180
-200 -180 -60 0 -91 13 -131 56 -64 68 -68 152 -18 411 15 78 24 146 20 149
-15 15 -66 -51 -110 -139 -71 -143 -110 -268 -113 -361 -2 -49 -8 -84 -16 -92
-23 -22 -83 -32 -134 -23 -144 27 -157 108 -74 459 48 207 6 240 -84 67 -20
-38 -36 -75 -36 -83 0 -8 -4 -14 -8 -14 -9 0 -47 -112 -68 -200 -7 -30 -14
-89 -14 -130 0 -41 -5 -82 -10 -90 -15 -24 -115 -19 -173 9 -81 39 -89 62 -83
221 5 123 27 302 42 340 4 8 8 26 10 40 2 14 15 65 29 113 14 48 25 89 25 92
0 2 13 11 30 20 57 29 170 13 211 -31 21 -22 21 -25 7 -83 -9 -33 -13 -62 -10
-65 2 -3 17 14 32 37 40 63 134 143 185 157 52 15 103 7 138 -20 30 -24 47
-86 47 -174 0 -71 9 -83 29 -38 27 59 93 148 139 187 45 38 142 59 202 45 27
-6 58 -19 68 -28 24 -22 52 -75 52 -101 0 -11 -20 -89 -45 -173 -87 -294 -98
-349 -74 -363 40 -25 175 252 199 410 17 110 47 203 75 231 40 40 155 28 222
-22 56 -42 55 -83 -12 -334 -57 -215 -64 -320 -21 -320 22 0 68 66 105 150 18
41 37 84 42 95 5 11 27 76 49 144 22 68 51 144 65 168 78 131 201 181 342 136
47 -15 55 -15 63 -3 7 11 28 15 79 14 59 0 74 -4 105 -28 58 -44 69 -75 61
-170 -3 -44 -15 -139 -26 -210 -10 -71 -17 -131 -14 -134 3 -3 15 8 27 23 59
73 99 145 128 234 66 202 182 304 325 287 28 -3 82 -22 122 -42 l73 -37 27 28
c56 56 115 67 213 39 48 -13 120 -62 120 -81 0 -3 -14 -21 -30 -40 -39 -43
-71 -108 -104 -206 -26 -78 -57 -230 -51 -251 2 -6 6 -23 9 -38 11 -51 55 -29
113 57 34 49 110 206 124 255 7 25 16 50 20 55 4 6 21 53 38 105 36 105 72
150 139 169 56 16 188 6 251 -18z m870 -35 l37 -36 73 25 c268 91 343 17 226
-224 -24 -50 -60 -116 -80 -147 -91 -142 -127 -246 -90 -260 21 -8 68 29 121
94 25 31 51 64 57 72 21 26 92 143 109 180 9 19 28 83 42 141 35 147 40 158
83 175 52 22 163 15 200 -12 58 -43 58 -52 3 -255 -28 -101 -57 -222 -66 -268
-14 -77 -14 -85 0 -100 21 -21 41 -8 71 45 49 88 99 224 170 466 35 117 47
130 122 136 71 5 114 -13 144 -61 25 -40 21 -118 -15 -270 -56 -234 -73 -342
-56 -352 16 -10 45 19 65 68 10 23 26 60 35 82 37 84 69 184 94 292 30 125 55
190 86 218 33 30 144 33 188 6 37 -24 53 -58 45 -92 -15 -65 -54 -192 -63
-209 -7 -13 -7 -20 -1 -20 6 0 20 19 32 42 61 120 175 263 228 285 49 21 142
21 175 0 39 -26 60 -65 59 -108 -1 -22 -18 -90 -37 -152 -79 -253 -101 -366
-75 -382 5 -4 21 -4 34 -1 18 5 36 31 78 119 30 61 61 130 67 151 36 113 68
150 115 132 22 -8 19 -30 -16 -126 -17 -47 -35 -97 -39 -111 -12 -40 -108
-223 -131 -250 -76 -90 -118 -114 -199 -113 -69 0 -112 23 -148 76 -25 39 -27
48 -27 152 1 99 5 124 38 233 40 134 42 143 26 143 -50 0 -180 -273 -205 -431
-4 -21 -11 -42 -15 -45 -5 -3 -7 -9 -4 -14 3 -5 -3 -27 -15 -49 -55 -109 -201
-88 -250 36 l-12 33 -28 -38 c-36 -49 -58 -68 -103 -87 -109 -46 -227 18 -260
143 -6 23 -14 42 -18 42 -4 0 -21 -21 -37 -47 -41 -67 -106 -129 -148 -143
-68 -23 -152 6 -193 66 -27 39 -51 115 -51 161 0 18 -4 33 -9 33 -5 0 -29 -30
-54 -68 -98 -143 -198 -212 -310 -212 -105 0 -167 40 -194 127 -28 89 1 182
114 372 52 86 45 93 -67 69 -78 -16 -104 -7 -124 42 -18 45 -20 96 -6 154 26
115 129 150 209 72z m-7129 -5 c0 -13 -29 -35 -37 -28 -7 8 15 37 28 37 5 0 9
-4 9 -9z m-1234 -146 c16 -75 23 -94 28 -75 7 28 36 169 36 176 0 2 9 4 20 4
19 0 20 -7 20 -130 0 -109 -2 -130 -15 -130 -12 0 -15 16 -16 83 l-1 82 -17
-80 c-12 -57 -21 -81 -33 -83 -13 -2 -19 10 -28 55 -24 118 -28 123 -29 31 -1
-71 -4 -88 -16 -88 -13 0 -15 21 -15 131 0 130 0 130 23 127 19 -3 24 -15 43
-103z m241 -10 c12 -60 22 -118 23 -127 0 -26 -28 -22 -32 5 -5 34 -55 37 -68
3 -10 -27 -30 -36 -30 -13 0 6 10 65 22 130 20 107 23 118 42 115 18 -3 24
-18 43 -113z m83 -15 c0 -109 -2 -130 -15 -130 -13 0 -15 21 -15 130 0 109 2
130 15 130 13 0 15 -21 15 -130z m128 118 c14 -14 16 -58 3 -58 -5 0 -13 9
-16 20 -4 13 -15 20 -31 20 -21 0 -24 -5 -24 -34 0 -26 7 -39 34 -59 59 -45
65 -116 12 -136 -35 -14 -63 -3 -74 29 -14 38 3 64 17 27 14 -36 40 -46 57
-22 16 22 5 46 -42 91 -27 25 -34 39 -34 71 0 47 14 63 55 63 17 0 36 -5 43
-12z m196 -4 c20 -20 21 -54 1 -54 -8 0 -15 9 -15 21 0 16 -5 20 -27 17 -46
-5 -42 -39 11 -92 37 -37 46 -52 46 -81 0 -43 -33 -70 -75 -59 -29 7 -51 43
-42 68 10 25 25 19 29 -11 2 -22 8 -28 28 -28 20 0 26 6 28 27 3 21 -6 37 -37
67 -49 48 -59 82 -37 116 19 29 66 34 90 9z m154 -103 c12 -66 22 -124 22
-130 0 -21 -29 -11 -32 12 -2 17 -10 22 -33 22 -22 0 -33 -6 -40 -22 -5 -13
-15 -23 -21 -23 -12 0 -10 15 27 200 10 51 15 60 34 60 20 0 23 -10 43 -119z
m74 8 c3 -95 6 -114 21 -123 34 -21 47 16 47 131 0 62 4 103 10 103 6 0 10
-47 10 -120 0 -115 -1 -120 -24 -135 -34 -23 -72 -11 -85 27 -6 17 -11 75 -11
129 0 80 3 99 15 99 12 0 15 -21 17 -111z m224 90 c15 -16 20 -39 22 -103 4
-111 -7 -130 -76 -134 l-52 -3 0 130 0 131 43 0 c32 0 49 -6 63 -21z m152 -92
c26 -134 27 -147 7 -147 -8 0 -15 9 -15 20 0 28 -48 39 -66 15 -7 -10 -15 -22
-17 -28 -1 -5 -7 -8 -13 -6 -6 2 0 54 15 132 22 116 26 127 45 127 20 0 24
-11 44 -113z m95 5 c11 -57 21 -101 23 -99 3 2 13 48 23 101 11 54 22 100 25
103 22 22 15 -61 -16 -204 -9 -44 -15 -53 -33 -53 -20 0 -24 10 -44 113 -12
61 -25 120 -28 130 -4 14 0 18 13 15 15 -3 22 -23 37 -106z m227 93 c0 -11
-11 -15 -38 -15 -21 0 -41 -2 -43 -4 -3 -3 -3 -23 -1 -45 4 -38 7 -41 33 -41
19 0 29 -5 29 -15 0 -10 -10 -15 -29 -15 -30 0 -40 -20 -33 -67 3 -19 10 -23
37 -23 19 0 37 -5 40 -11 5 -7 -12 -9 -51 -7 l-58 3 0 128 -1 127 58 0 c44 0
57 -3 57 -15z m52 -102 l3 -118 38 -3 c57 -5 44 -22 -18 -22 l-55 0 0 130 c0
108 3 130 15 130 12 0 15 -22 17 -117z"/>
<path d="M7098 7924 c-5 -4 -8 -133 -8 -286 l0 -278 95 0 c113 0 160 18 196
77 23 36 24 47 24 203 0 155 -1 167 -23 202 -37 60 -78 79 -184 85 -51 3 -96
2 -100 -3z"/>
<path d="M12438 7523 c7 -3 16 -2 19 1 4 3 -2 6 -13 5 -11 0 -14 -3 -6 -6z"/>
<path d="M5632 6103 c-24 -36 -132 -261 -132 -277 0 -11 79 -60 86 -54 5 6 72
271 79 316 8 49 -5 55 -33 15z"/>
<path d="M2510 5975 c0 -56 0 -56 28 -53 25 3 27 6 27 53 0 47 -2 50 -27 53
-28 3 -28 3 -28 -53z"/>
<path d="M2676 5958 c-4 -24 -9 -53 -13 -65 -4 -19 -1 -23 19 -23 35 0 36 4
25 63 -13 69 -23 77 -31 25z"/>
<path d="M2810 5981 c0 -42 3 -51 18 -51 32 0 43 16 40 56 -3 34 -6 39 -30 42
-27 3 -28 2 -28 -47z"/>
<path d="M2981 5951 c-16 -75 -15 -81 15 -81 25 0 26 1 19 53 -11 80 -21 88
-34 28z"/>
<path d="M3542 5958 c-16 -86 -15 -88 8 -88 29 0 32 16 17 90 l-13 64 -12 -66z"/>
<path d="M3960 5925 c0 -94 2 -105 18 -105 33 0 42 22 42 98 0 81 -11 112 -40
112 -19 0 -20 -7 -20 -105z"/>
<path d="M4122 5950 c-14 -67 -11 -80 20 -80 19 0 20 4 14 50 -12 90 -20 98
-34 30z"/>
<path d="M8198 5621 c-108 -94 -227 -491 -148 -491 10 0 45 59 55 91 4 13 15
42 25 64 30 69 58 147 90 248 37 114 32 135 -22 88z"/>
<path d="M9030 5618 c-69 -36 -127 -168 -137 -310 -6 -94 8 -138 45 -138 42 0
103 104 162 275 52 150 51 142 25 159 -35 23 -67 28 -95 14z"/>
<path d="M9700 5413 c-43 -119 -45 -135 -24 -188 32 -84 129 -144 179 -111 29
19 35 52 18 115 -17 66 -118 271 -134 271 -4 0 -21 -39 -39 -87z"/>
<path d="M2737 5633 c-3 -4 -8 -31 -12 -59 -6 -46 -5 -52 14 -57 29 -7 31 0
19 63 -10 59 -13 66 -21 53z"/>
<path d="M3297 5638 c-3 -10 -9 -40 -13 -68 -6 -49 -6 -50 19 -50 24 0 26 3
21 33 -18 97 -20 102 -27 85z"/>
<path d="M3570 5565 c0 -97 1 -105 19 -105 39 0 51 27 51 109 0 82 -9 101 -47
101 -23 0 -23 -2 -23 -105z"/>
<path d="M3748 5635 c-3 -6 -9 -34 -13 -62 -7 -52 -7 -53 20 -53 25 0 26 2 19
38 -12 63 -20 87 -26 77z"/>
</g>
</svg>
